<?xml version="1.0" encoding="UTF-8"?><!DOCTYPE svg PUBLIC "-//W3C//DTD SVG 1.1//EN" "http://www.w3.org/Graphics/SVG/1.1/DTD/svg11.dtd"><svg xmlns="http://www.w3.org/2000/svg"><symbol id="icon-01" viewBox="0 0 56.693 56.693">
<g>
	<path fill="#474A56" d="M35.421,46.528H20.77l-1.095,6.424c-0.052,0.303,0.033,0.612,0.23,0.847
		c0.197,0.235,0.489,0.369,0.795,0.369H35.49c0.004,0,0.009,0,0.014,0c0.575,0,1.041-0.466,1.041-1.041
		c0-0.12-0.02-0.234-0.057-0.341L35.421,46.528z"/>
	<path fill="#474A56" d="M51.145,4.32H5.575c-1.096,0-1.985,0.924-1.985,2.065V42.38c0,1.142,0.889,2.066,1.985,2.066h45.57
		c1.095,0,1.985-0.924,1.985-2.066V6.385C53.13,5.244,52.239,4.32,51.145,4.32z M50.13,38.136H6.591V9.033
		c0-1.007,0.808-1.823,1.807-1.823h39.923c1,0,1.809,0.816,1.809,1.823V38.136z"/>
	<path fill="#474A56" d="M24.499,19.757c-0.263,0.386-0.597,0.719-0.982,0.983l6.888,6.881c0.262-0.385,0.596-0.719,0.982-0.982
		L24.499,19.757z"/>
	<path fill="#474A56" d="M42.292,19.325l-6.862,7.261c0.395,0.252,0.735,0.576,1.008,0.954l6.866-7.266
		C42.908,20.025,42.567,19.703,42.292,19.325z"/>
	<path fill="#474A56" d="M14.103,22.826c0.349,0.31,0.636,0.681,0.848,1.101l4.157-3.414c-0.358-0.298-0.656-0.66-0.882-1.073
		L14.103,22.826z"/>
	<path fill="#474A56" d="M21.449,15.394c-1.269,0-2.297,1.029-2.297,2.296c0,0.302,0.062,0.587,0.167,0.851
		c0.177,0.443,0.486,0.817,0.88,1.073c0.36,0.234,0.788,0.374,1.25,0.374c0.38,0,0.734-0.102,1.05-0.267
		c0.421-0.218,0.763-0.561,0.981-0.982c0.164-0.315,0.265-0.668,0.265-1.049C23.746,16.423,22.716,15.394,21.449,15.394z"/>
	<path fill="#474A56" d="M34.448,27.625c-0.302-0.146-0.635-0.235-0.992-0.235c-0.381,0-0.735,0.102-1.052,0.266
		c-0.421,0.219-0.763,0.561-0.981,0.982c-0.164,0.315-0.265,0.668-0.265,1.049c0,1.268,1.028,2.296,2.297,2.296
		c1.267,0,2.295-1.028,2.295-2.296c0-0.404-0.113-0.777-0.296-1.107C35.225,28.165,34.876,27.832,34.448,27.625z"/>
	<path fill="#474A56" d="M45.264,14.869c-1.268,0-2.297,1.028-2.297,2.297c0,0.41,0.116,0.789,0.304,1.121
		c0.233,0.413,0.584,0.745,1.015,0.949c0.297,0.142,0.627,0.227,0.978,0.227c1.268,0,2.295-1.029,2.295-2.297
		C47.56,15.897,46.532,14.869,45.264,14.869z"/>
	<path fill="#474A56" d="M13.016,23.719c-0.378-0.275-0.84-0.442-1.343-0.442c-1.269,0-2.297,1.028-2.297,2.296
		c0,1.269,1.028,2.297,2.297,2.297c1.268,0,2.295-1.028,2.295-2.297c0-0.257-0.052-0.501-0.131-0.733
		C13.683,24.386,13.397,23.996,13.016,23.719z"/>
</g>
</symbol><symbol id="icon-02" viewBox="0 0 56.693 56.693">
<path fill="#474A56" d="M35.63,4.401H21.116c-9.831,0-17.829,7.823-17.829,17.438c0,9.394,7.454,16.999,17.056,17.417l6.133,13.496
	c0.337,0.744,1.079,1.221,1.896,1.221c1.341,0,1.788-0.984,2.183-1.852l5.846-12.863c9.581-0.399,17.057-8.011,17.057-17.419
	C53.459,12.224,45.461,4.401,35.63,4.401z M36.109,35.101l-1.081,0.012c-0.808,0.009-1.538,0.485-1.873,1.221
	c0,0-2.809,6.179-4.783,10.523l-4.783-10.523c-0.334-0.736-1.065-1.212-1.873-1.221l-1.038-0.01
	c-7.416-0.228-13.226-6.054-13.226-13.263c0-7.319,6.13-13.273,13.664-13.273H35.63c7.534,0,13.663,5.954,13.663,13.273
	C49.293,29.049,43.484,34.875,36.109,35.101z"/>
</symbol><symbol id="icon-03" viewBox="0 0 56.693 56.693">
<path fill="#474A56" d="M35.364,4.401H20.851c-9.831,0-17.83,7.823-17.83,17.438c0,9.394,7.454,16.999,17.057,17.417l6.133,13.496
	c0.337,0.744,1.078,1.221,1.896,1.221c0.816,0,1.558-0.477,1.896-1.221l6.133-13.494c9.581-0.399,17.057-8.011,17.057-17.419
	C53.193,12.224,45.195,4.401,35.364,4.401z"/>
</symbol></svg>