<?xml version="1.0" encoding="utf-8"?>
<!-- Generator: Adobe Illustrator 17.0.0, SVG Export Plug-In . SVG Version: 6.00 Build 0)  -->
<!DOCTYPE svg PUBLIC "-//W3C//DTD SVG 1.1//EN" "http://www.w3.org/Graphics/SVG/1.1/DTD/svg11.dtd">
<svg version="1.1" id="Layer_1" xmlns="http://www.w3.org/2000/svg" xmlns:xlink="http://www.w3.org/1999/xlink" x="0px" y="0px"
	 width="56.693px" height="56.693px" viewBox="0 0 56.693 56.693" enable-background="new 0 0 56.693 56.693" xml:space="preserve">
<path fill="#474A56" d="M35.63,4.401H21.116c-9.831,0-17.829,7.823-17.829,17.438c0,9.394,7.454,16.999,17.056,17.417l6.133,13.496
	c0.337,0.744,1.079,1.221,1.896,1.221c1.341,0,1.788-0.984,2.183-1.852l5.846-12.863c9.581-0.399,17.057-8.011,17.057-17.419
	C53.459,12.224,45.461,4.401,35.63,4.401z M36.109,35.101l-1.081,0.012c-0.808,0.009-1.538,0.485-1.873,1.221
	c0,0-2.809,6.179-4.783,10.523l-4.783-10.523c-0.334-0.736-1.065-1.212-1.873-1.221l-1.038-0.01
	c-7.416-0.228-13.226-6.054-13.226-13.263c0-7.319,6.13-13.273,13.664-13.273H35.63c7.534,0,13.663,5.954,13.663,13.273
	C49.293,29.049,43.484,34.875,36.109,35.101z"/>
</svg>
